<svg width="54" height="54" viewBox="0 0 54 54" fill="none" xmlns="http://www.w3.org/2000/svg">
<circle cx="27" cy="27" r="27" fill="#185ADB"/>
<path d="M33.6667 12.3466L20.3333 12.3333C18.8667 12.3333 17.68 13.5333 17.68 15V39C17.68 40.4666 18.8667 41.6666 20.3333 41.6666H33.6667C35.1333 41.6666 36.3333 40.4666 36.3333 39V15C36.3333 13.5333 35.1333 12.3466 33.6667 12.3466ZM33.6667 36.3333H20.3333V17.6666H33.6667V36.3333ZM28.0667 28.6266V30.96L32.3333 26.9733L28.0667 23V25.2666C23.92 25.84 22.2667 28.68 21.6667 31.5333C23.1467 29.5333 25.1067 28.6266 28.0667 28.6266Z" fill="white"/>
</svg>
