<svg width="54" height="54" viewBox="0 0 54 54" fill="none" xmlns="http://www.w3.org/2000/svg">
<circle cx="27" cy="27" r="27" fill="#185ADB"/>
<path d="M18.3333 31C19.4995 30.9965 20.6216 30.5538 21.476 29.76L29.8227 34.5293C29.543 35.6222 29.6663 36.7791 30.1699 37.7885C30.6736 38.7978 31.5239 39.592 32.5653 40.0256C33.6066 40.4592 34.7693 40.5033 35.8405 40.1498C36.9117 39.7962 37.8197 39.0687 38.3983 38.1004C38.9769 37.1321 39.1874 35.9877 38.9913 34.8769C38.7952 33.7661 38.2055 32.763 37.3303 32.0514C36.4551 31.3398 35.3528 30.9672 34.2253 31.0018C33.0978 31.0364 32.0205 31.476 31.1907 32.24L22.844 27.4707C22.932 27.1373 22.98 26.792 22.988 26.4467L31.188 21.76C31.9776 22.4784 32.9902 22.9034 34.0559 22.9636C35.1217 23.0239 36.1757 22.7158 37.0413 22.0911C37.9068 21.4664 38.5312 20.563 38.8096 19.5324C39.088 18.5019 39.0036 17.407 38.5704 16.4314C38.1373 15.4558 37.3818 14.6588 36.4307 14.1741C35.4796 13.6895 34.3907 13.5467 33.3468 13.7697C32.3029 13.9927 31.3675 14.5679 30.6974 15.3988C30.0273 16.2298 29.6634 17.2659 29.6667 18.3333C29.672 18.7173 29.724 19.1 29.8227 19.4707L22.244 23.8C21.8045 23.1201 21.1957 22.5662 20.4773 22.1928C19.759 21.8193 18.9559 21.6392 18.1469 21.6701C17.3379 21.7009 16.5508 21.9418 15.863 22.3688C15.1753 22.7959 14.6104 23.3946 14.224 24.106C13.8376 24.8174 13.6429 25.6172 13.6591 26.4266C13.6752 27.236 13.9017 28.0273 14.3162 28.7227C14.7308 29.4182 15.3191 29.9938 16.0234 30.3931C16.7277 30.7923 17.5237 31.0015 18.3333 31Z" fill="white"/>
</svg>
