<svg width="54" height="54" viewBox="0 0 54 54" fill="none" xmlns="http://www.w3.org/2000/svg">
<circle cx="27" cy="27" r="27" fill="#185ADB"/>
<path d="M25.25 11.076C24.2 11.2135 22.7375 11.5635 21.75 11.901C19.3625 12.751 17.6125 13.8635 15.7375 15.7385C13.8625 17.6135 12.75 19.3635 11.9 21.751C11.25 23.6135 11.075 24.7135 11.075 27.001C11.075 29.276 11.2375 30.376 11.9 32.251C12.3375 33.501 12.5875 33.8135 13.05 33.701C13.55 33.576 13.5625 33.1635 13.1375 31.926C12.5375 30.151 12.325 28.876 12.325 27.0635C12.325 25.226 12.5 24.0635 13.0125 22.4885C14.4625 18.0135 18 14.4635 22.4625 13.0135C24.0375 12.501 25.2125 12.326 27 12.326C28.775 12.326 29.9625 12.501 31.525 13.0135C33.475 13.651 35.2 14.626 36.775 16.0135C37.6625 16.801 38.1375 16.951 38.375 16.5135C38.45 16.3635 38.5 15.276 38.5 13.8385C38.5 11.5635 38.4875 11.401 38.25 11.1885C38.05 11.001 37.925 10.976 37.65 11.076L37.3125 11.1885L37.275 12.9135C37.25 14.4635 37.1625 14.8635 36.9375 14.501C36.775 14.226 34.9 13.0635 33.825 12.5635C31.575 11.501 30.0125 11.1385 27.5 11.076C26.5 11.0385 25.4875 11.051 25.25 11.076Z" fill="white"/>
<path d="M24.6875 16.0506C20.3375 17.0756 17.1125 20.2256 16.1125 24.4631C15.75 25.9631 15.75 28.0381 16.1125 29.5506C16.8875 32.8131 19.0375 35.5256 22.0625 37.0381C27.5625 39.7881 34.25 37.5131 37.0375 31.9381C39.3375 27.3256 38.125 21.7506 34.075 18.3506C33.1375 17.5631 31.125 16.5131 29.9375 16.1881C28.9 15.9006 25.7 15.8256 24.6875 16.0506ZM27.7 21.2631C29.1 21.7506 30.0375 22.6631 30.3625 23.8256C30.55 24.5131 30.5375 24.8756 30.2875 25.1506C30.1125 25.3506 29.85 25.3756 27.725 25.3756H25.375V28.6381V31.9131L26.2 31.8256C27.7625 31.6631 29 30.9756 29.5 29.9881C29.6375 29.7256 29.75 29.4756 29.75 29.4381C29.75 29.4006 29.225 29.3756 28.5875 29.3756C27.325 29.3756 27.125 29.2881 27.125 28.7506C27.125 28.1756 27.3 28.1256 29.1375 28.1256C31.1375 28.1256 31.2 28.1506 31.0875 29.1381C30.8125 31.4631 28.8875 32.9256 25.9 33.0881C23.975 33.2006 24.125 33.5756 24.125 28.6131C24.125 25.0631 24.15 24.4881 24.325 24.3256C24.4875 24.1631 24.9 24.1256 26.825 24.1256C28.0875 24.1256 29.125 24.0756 29.125 24.0131C29.125 23.8881 28.65 23.2506 28.375 23.0256C28.025 22.7256 27.1375 22.3881 26.35 22.2506C25.2125 22.0506 25.1375 22.0131 25.05 21.6756C25 21.4631 25.05 21.2881 25.2 21.1006C25.4125 20.8756 25.5375 20.8631 26.1875 20.9256C26.6 20.9631 27.275 21.1256 27.7 21.2631Z" fill="white"/>
<path d="M40.525 20.1502C40.3125 20.3627 40.3375 20.7752 40.6375 21.4627C41.45 23.3502 41.8625 26.1877 41.6375 28.3502C40.9375 35.0252 36.025 40.3627 29.5 41.5127C28.3 41.7252 25.7 41.7252 24.5 41.5127C21.8125 41.0377 18.7625 39.5127 17.0375 37.8002C16.4875 37.2377 16.0625 37.1127 15.775 37.4002C15.5625 37.6127 15.5625 42.6377 15.775 42.8502C16.0125 43.0877 16.4625 43.0252 16.675 42.7252C16.825 42.5127 16.875 42.1002 16.875 40.8877V39.3377L17.15 39.5877C18.15 40.4752 20.2 41.5752 22.0375 42.1877C26.6875 43.7377 31.825 43.0127 36 40.2127C37.2 39.4127 39.4125 37.2002 40.2125 36.0002C43.025 31.7877 43.7375 26.7127 42.1625 21.9627C41.9125 21.2252 41.6125 20.4752 41.475 20.3127C41.2125 19.9752 40.775 19.9002 40.525 20.1502Z" fill="white"/>
</svg>
